<svg width="68" height="98" viewBox="0 0 68 98" fill="none" xmlns="http://www.w3.org/2000/svg">
<path d="M61.5027 36.7156C58.7963 35.5021 55.6269 36.7308 54.4236 39.4596L47.1904 56.3471H45.4748V45.5486V42.6082V15.5563C45.4748 12.5699 43.0739 10.1485 40.112 10.1485C37.1501 10.1485 34.7492 12.5696 34.7492 15.5563V7.96719C34.7492 4.9808 32.3484 2.55945 29.3865 2.55945C26.4249 2.55945 24.0237 4.98045 24.0237 7.96719V15.5563C24.0237 12.5699 21.6228 10.1485 18.6609 10.1485C15.699 10.1485 13.2982 12.5696 13.2982 15.5563V28.3512C13.2982 25.3648 10.8973 22.9434 7.9354 22.9434C4.97384 22.9434 2.57263 25.3644 2.57263 28.3512V42.6082V42.8447V67.1501C2.57263 73.3204 6.41484 78.5832 11.8174 80.6456V126.395H43.3068V80.6453C47.3221 79.1123 50.474 75.8106 51.8286 71.6833L51.8653 71.6889L56.9901 60.2568L64.2232 43.8538C65.4272 41.125 64.2088 37.929 61.5027 36.7156Z" fill="#FFCAB9"/>
<path d="M21.0323 15.5563C21.0323 14.1032 21.6037 12.7871 22.5282 11.8154C22.0992 11.3644 21.5934 10.9909 21.0323 10.7112V15.5563Z" fill="#FABBA7"/>
<path d="M12.7282 78.2197C8.19224 76.4883 5.14495 72.0394 5.14495 67.1501V60.3097C5.14495 56.9564 0.000976562 56.9564 0.000976562 60.3097V67.1501C0.000976562 73.5676 3.65045 79.4563 9.24573 82.3297V127.418C9.24573 128.85 10.397 130.011 11.8177 130.011C13.2385 130.011 14.3897 128.85 14.3897 127.418V80.6452C14.3897 79.5673 13.7282 78.6015 12.7282 78.2197Z" fill="black"/>
<path d="M66.7299 38.7859C65.9696 36.791 64.4841 35.2141 62.5479 34.3458C58.597 32.5749 53.7956 34.501 52.0624 38.4311L48.047 47.8063V15.5563C48.1561 10.0787 42.344 6.05315 37.3215 8.0661C36.7107 -2.69337 21.8827 -2.68403 21.4523 8.0661C16.4287 6.05453 10.6184 10.0784 10.7271 15.5566V20.8613C5.70693 18.8501 -0.109542 22.8729 0.00156761 28.3515V47.3419C0.00156761 50.6952 5.14555 50.6952 5.14555 47.3419V28.3512C5.28889 24.6196 10.5872 24.6265 10.7271 28.3512V46.3885C10.7271 49.7418 15.8711 49.7418 15.8711 46.3885C15.8711 36.1111 15.8711 25.8337 15.8711 15.5563C16.0086 11.8344 21.3107 11.8233 21.4523 15.5563V40.7775C21.4523 44.1307 26.5963 44.1307 26.5963 40.7775V7.9672C26.5963 6.41556 27.848 5.15301 29.3871 5.15301C30.9261 5.15301 32.1778 6.41521 32.1778 7.9672V40.7775C32.1778 44.1307 37.3218 44.1307 37.3218 40.7775V15.5563C37.3218 14.0047 38.5738 12.7421 40.1129 12.7421C41.652 12.7421 42.9037 14.0043 42.9037 15.5563V53.8165C35.3119 54.5008 29.3716 60.937 29.3716 68.6385C29.3716 71.9918 34.5156 71.9918 34.5156 68.6385C34.5156 61.3672 41.0443 58.6841 47.1914 58.941C48.2174 58.941 49.1458 58.3258 49.5528 57.3759L56.775 40.5136C57.6117 39.0121 58.8398 38.5359 60.4584 39.0858C61.9477 39.9295 62.42 41.1679 61.8747 42.8004C57.8182 52 49.4407 70.8285 49.4407 70.8285C48.2548 74.2261 45.6218 76.9894 42.3975 78.2201C41.3976 78.6019 40.736 79.5674 40.736 80.6456V126.395C40.736 127.827 41.8873 128.988 43.308 128.988C44.7288 128.988 45.88 127.827 45.88 126.395V82.3256C49.703 80.3441 52.7627 76.8425 54.2541 72.6596C58.3946 63.4237 62.4906 54.1692 66.5746 44.9078C67.435 42.955 67.4905 40.7809 66.7299 38.7859Z" fill="black"/>
</svg>
